<svg width="105" height="105" viewBox="0 0 105 105" fill="none" xmlns="http://www.w3.org/2000/svg">
<ellipse cx="58.3557" cy="45.2743" rx="43.4573" ry="43.7563" fill="white"/>
<path d="M17.1439 27.9557C23.1336 21.3609 27.9253 13.6146 34.7038 7.8759M16.0472 35.7632C26.703 25.2349 34.9782 13.6136 38.107 5.07929M16.2991 39.0388C23.3523 26.4418 31.1271 19.0878 43.503 7.43094M16.1777 41.2017C26.0055 28.6517 35.764 19.272 45.1267 6.03414M14 46.524C29.8455 28.2482 43.0991 13.1092 52.1161 3.59151M15.571 47.647C25.2387 35.3146 35.4368 22.8863 53.3339 2.46541M16.9844 50.3537C28.3087 36.867 40.0748 18.7006 54.2074 1M17.6299 53.1553C34.4145 34.3986 49.6621 14.2739 57.2192 1.27248M17.8792 57.6164C25.3714 42.4811 36.9613 30.7177 59.7087 2.16342M19.0756 58.2719C31.8889 39.768 49.079 21.671 65.7609 2.1774M20.1075 61.9531C35.3452 40.0416 54.9056 18.7824 64.7341 3.05144M20.7389 64.0213C33.4991 45.3206 45.3765 30.2071 69.8581 1.92708M20.7693 65.9984C34.8276 44.7998 50.6743 28.656 68.614 2.20063M19.6631 66.793C37.2089 46.6758 50.9538 29.3256 71.0891 6.12629M23.2272 68.0313C33.4172 56.3507 42.8886 44.8889 76.0613 5.03345M24.6125 69.6947C41.7342 49.9303 62.9971 25.2872 78.9813 6.45798M26.8405 72.1668C45.6343 47.0181 62.4506 26.1063 79.8249 8.96218M25.3862 75.6678C46.0625 49.185 69.4246 21.164 79.4824 6.5913M28.9475 73.6977C41.2888 60.306 54.5644 44.5846 82.0157 7.8684M30.3076 76.631C50.3455 54.5042 67.0544 32.7374 84.1623 10.923M30.1482 76.5039C48.846 60.1931 66.0408 39.7839 85.269 12.7035M32.2974 78.1266C54.0636 55.8357 72.4879 32.3958 88.0323 12.1229M34.5105 79.541C57.2965 56.3704 77.3423 28.079 89.4878 13.9178M33.9561 81.8124C46.5417 64.8504 62.9218 49.3251 90.2715 13.9694M37.187 81.8304C51.5525 65.366 64.8053 50.2203 92.0868 15.3295M40.6913 84.0219C57.1227 65.2759 75.3188 40.8528 94.3096 20.7659M40.9436 87.5763C56.6992 67.9942 69.0606 48.932 94.6513 19.4111M43.6172 85.7054C54.6451 69.5402 71.5968 54.767 95.369 23.0067M44.1203 88.0173C60.1037 65.25 77.6842 47.9013 95.1971 22.6156M47.7333 87.5005C65.4541 66.397 85.7939 41.5164 98.3724 26.0132M50.1108 86.8925C58.53 75.8113 72.1887 63.356 98.7084 29.578M50.7583 88.5469C66.0834 70.3214 84.6644 47.5802 100.064 29.2022M54.8446 89.4783C71.2035 66.767 85.4249 47.3854 99.1911 34.8776M56.0278 90.6884C70.6345 74.3336 83.3172 59.2807 99.6215 35.639M57.9552 91C70.3668 77.264 78.1897 63.7451 102.509 39.0244M62.1029 88.8472C77.395 73.2804 90.5152 59.0051 100.937 38.1505M63.9987 89.1032C74.5272 72.6726 86.0854 57.997 100.546 44.7703M67.0651 87.4579C81.9037 72.3303 92.6884 57.0054 101.008 46.3777M71.9795 87.7527C81.7305 72.6428 92.7531 59.9095 104 51.3779M75.2582 87.207C83.6317 75.2485 95.6843 62.8801 102.812 52.2048M79.2248 82.6991C87.6194 73.935 92.7768 67.0038 100.995 61.0468M83.0715 80.4248C88.2098 75.8517 94.068 67.948 99.6276 63.7043M27.4999 14.4881V14.4881Z" stroke="url(#paint0_linear_2_135)" stroke-width="0.5" stroke-linecap="round"/>
<g filter="url(#filter0_d_2_135)">
<g filter="url(#filter1_d_2_135)">
<circle cx="46.9863" cy="57.3838" r="36.9863" fill="white"/>
</g>
</g>
<path d="M37.9379 52.3726C34.5975 53.1759 31.3978 54.4793 28.4469 56.2386C27.2211 57.0068 26.0038 58.9 25.0509 60.0166C23.9595 61.3557 22.8639 62.6947 21.7599 64.0212L21.5668 63.6014C23.0579 63.7244 24.5363 63.9701 25.987 64.336C27.4283 64.6999 28.8333 65.1944 30.1847 65.8136C29.4795 65.5786 28.7743 65.3603 28.0607 65.1672C25.754 64.5529 23.3856 64.1995 21.0001 64.1136L21.3233 63.6938C23.1745 61.3766 25.1013 58.8538 27.0532 56.6248C28.6945 55.1305 30.8689 54.4001 32.8838 53.6235C34.5198 53.0535 36.2066 52.6416 37.9211 52.3935L37.9379 52.3726Z" fill="#454545"/>
<path d="M50.1532 67.1147C51.53 72.7397 44.2974 79.1874 39.7513 81.4667L39.3021 81.7018C39.7482 79.2912 39.2557 76.8012 37.9253 74.742C38.6662 75.6383 39.2187 76.6748 39.5498 77.7895C39.8901 78.9174 40.0042 80.1015 39.8856 81.2736L39.5078 81.0134C43.7937 78.6039 50.8878 72.5256 50.1532 67.1147Z" fill="#454545"/>
<path d="M27.607 66.7624L38.4581 50.1772C39.5537 48.4981 40.6577 46.819 42.1059 45.459C44.7756 42.9404 48.4318 41.681 52.0796 41.2613C55.7275 40.8415 59.4088 41.2403 63.0567 41.6265L62.3389 50.8824C62.1164 53.7033 61.8813 56.5871 60.7269 59.1645C58.7288 63.6351 54.3422 66.4727 50.1865 69.0585L40.9515 74.8052C39.2724 75.8378 37.3331 76.904 35.4945 76.287C34.4115 75.9176 33.6013 75.0276 32.8541 74.1629C30.8952 71.8934 29.0468 69.5328 27.309 67.0814" fill="url(#paint1_linear_2_135)"/>
<path d="M53.5944 49.9883C52.2427 48.8675 50.3454 49.3334 48.7796 49.6441C47.9632 49.7913 47.1893 50.1166 46.5129 50.5969C45.0814 51.6632 45.6062 53.8166 46.9704 54.7023C48.9895 56.1001 51.7852 56.2303 54.0268 55.3236C55.4792 54.8576 55.4918 53.8166 55.051 52.5447C54.732 51.3735 53.9638 50.3787 52.7423 50.1058C51.5609 49.8027 50.3265 49.7684 49.1301 50.0052C47.9337 50.242 46.8055 50.744 45.8286 51.4743C45.1843 51.944 44.625 52.5204 44.1747 53.1785C44.0887 53.3191 44.0377 53.4782 44.026 53.6426C44.0143 53.8069 44.0423 53.9717 44.1076 54.123C46.2064 57.6365 52.8766 58.2158 55.815 55.4705C56.3691 54.8912 56.2599 54.2112 55.9493 53.5185C55.3315 52.0439 54.2138 50.8341 52.7926 50.1016C50.0096 48.6114 46.1057 49.5559 44.3972 52.2005C43.5577 53.5269 44.3217 55.2228 45.5684 55.9784C46.8949 56.8179 48.6159 56.9858 50.1859 56.9229C51.7558 56.8599 53.3971 56.3772 54.5473 55.3236C55.114 54.8114 55.6093 54.1398 55.5673 53.5101C55.5253 52.8805 54.8915 52.2592 54.4004 51.6212C53.9729 50.9985 53.3349 50.5512 52.6037 50.3619C51.8401 50.2528 51.0611 50.347 50.3454 50.6347C48.8342 51.1972 47.2601 51.894 46.2862 53.0988C46.06 53.3264 45.9128 53.6207 45.8664 53.9383C45.9413 54.2523 46.1316 54.5265 46.3995 54.7065C47.0001 55.2194 47.7005 55.6025 48.4564 55.8315C50.5553 56.5535 56.5874 56.3268 55.794 52.9183C55.1308 49.686 51.6341 47.7719 48.4606 48.0783C46.962 48.2378 45.1024 48.5317 44.0866 49.728C42.1095 52.6664 45.0856 56.2303 48.0576 56.9565C49.6539 57.3962 51.3194 57.5273 52.9647 57.3427C53.7788 57.2896 54.5753 57.0816 55.3113 56.7298C55.8644 56.4743 56.3303 56.0621 56.6512 55.5442C56.972 55.0263 57.1338 54.4256 57.1163 53.8166C56.9064 52.5992 55.9199 51.6464 55.2609 50.6305C54.266 49.3124 53.0529 48.0573 51.4536 47.4906C53.0655 48.0153 54.329 49.2495 55.3616 50.555C56.2809 51.873 57.8803 53.3213 57.1415 55.0759C55.9283 58.262 50.6812 58.0605 47.9065 57.3636C44.6365 56.6039 41.4294 52.6622 43.629 49.4174C44.8128 48.0069 46.685 47.7383 48.385 47.5074C51.844 47.1338 55.6723 49.1865 56.453 52.7881C56.58 53.2513 56.5832 53.7396 56.4624 54.2044C56.3416 54.6692 56.101 55.0942 55.7646 55.4369C53.3887 57.4938 48.2087 57.4182 45.8748 55.29C45.2452 54.8282 44.8002 53.9299 45.2703 53.1911C46.3156 51.4323 48.2423 50.5801 50.0641 49.8917C50.9116 49.5508 51.835 49.4435 52.7381 49.5811C54.1401 49.8455 55.0006 51.0629 55.7772 52.1375C56.814 53.464 56.197 54.9668 55.0384 55.9616C53.0361 57.7708 50.1271 58.0605 47.5665 57.6407C45.3711 57.3469 42.949 55.63 43.2009 53.1659C44.0404 49.1151 49.7829 47.5536 53.0991 49.4384C54.6831 50.2548 55.9275 51.6048 56.6126 53.2499C57.5151 55.1514 56.3439 56.3562 54.6522 57.095C52.9539 57.8548 51.0721 58.1076 49.2334 57.8231C47.3948 57.5387 45.6774 56.729 44.2881 55.4915C42.3865 53.6948 43.8431 52.2508 45.4592 51.0167C47.8687 49.2872 51.4242 48.6324 54.0645 50.2024C55.1476 51.0167 55.5757 52.4061 55.7184 53.7032C55.8108 54.7485 55.072 55.4285 54.1527 55.7139C51.76 56.6248 48.8846 56.4359 46.7815 54.929C45.3333 53.9341 44.8086 51.6128 46.3827 50.471C47.0919 49.9805 47.9026 49.6562 48.7544 49.5223C50.3328 49.2453 52.2679 48.8297 53.5944 49.9883Z" fill="white"/>
<path d="M29.8112 66.6069C31.973 63.7945 34.1474 61.003 35.9482 57.9638C37.7491 54.9247 39.021 51.5707 41.3003 48.7834C46.1067 42.9654 54.3132 42.5876 61.315 42.3945C59.8458 45.7863 60.1732 49.5684 59.9214 53.191C59.7073 57.0319 58.4773 60.2222 55.371 62.6317C52.5544 64.8481 49.4942 66.7035 46.4761 68.6008C43.4579 70.4982 40.3097 72.1899 37.1446 73.8396C40.2789 72.1353 43.3572 70.3303 46.3795 68.4245C49.3641 66.5062 52.4159 64.6088 55.1947 62.384C58.1919 59.9955 59.3924 56.927 59.5688 53.1491C59.808 49.602 59.4764 45.9038 60.8281 42.5163L61.0254 42.8059C57.4993 42.8899 53.948 43.041 50.5311 43.8553C41.4976 46.0507 40.2635 50.9033 36.1245 58.0688C34.2524 61.0869 32.0276 63.849 29.828 66.6069H29.8112Z" fill="#454545"/>
<defs>
<filter id="filter0_d_2_135" x="0.136987" y="3.13699" width="93.6986" height="109.726" filterUnits="userSpaceOnUse" color-interpolation-filters="sRGB">
<feFlood flood-opacity="0" result="BackgroundImageFix"/>
<feColorMatrix in="SourceAlpha" type="matrix" values="0 0 0 0 0 0 0 0 0 0 0 0 0 0 0 0 0 0 127 0" result="hardAlpha"/>
<feOffset/>
<feGaussianBlur stdDeviation="4.93151"/>
<feComposite in2="hardAlpha" operator="out"/>
<feColorMatrix type="matrix" values="0 0 0 0 0 0 0 0 0 0 0 0 0 0 0 0 0 0 0.05 0"/>
<feBlend mode="normal" in2="BackgroundImageFix" result="effect1_dropShadow_2_135"/>
<feBlend mode="normal" in="SourceGraphic" in2="effect1_dropShadow_2_135" result="shape"/>
</filter>
<filter id="filter1_d_2_135" x="0" y="10.3975" width="93.9726" height="93.9727" filterUnits="userSpaceOnUse" color-interpolation-filters="sRGB">
<feFlood flood-opacity="0" result="BackgroundImageFix"/>
<feColorMatrix in="SourceAlpha" type="matrix" values="0 0 0 0 0 0 0 0 0 0 0 0 0 0 0 0 0 0 127 0" result="hardAlpha"/>
<feOffset/>
<feGaussianBlur stdDeviation="5"/>
<feComposite in2="hardAlpha" operator="out"/>
<feColorMatrix type="matrix" values="0 0 0 0 0 0 0 0 0 0 0 0 0 0 0 0 0 0 0.08 0"/>
<feBlend mode="normal" in2="BackgroundImageFix" result="effect1_dropShadow_2_135"/>
<feBlend mode="normal" in="SourceGraphic" in2="effect1_dropShadow_2_135" result="shape"/>
</filter>
<linearGradient id="paint0_linear_2_135" x1="23.2475" y1="12.88" x2="111.411" y2="58.8844" gradientUnits="userSpaceOnUse">
<stop stop-color="#3CA0D2"/>
<stop offset="1" stop-color="#48DCA6"/>
</linearGradient>
<linearGradient id="paint1_linear_2_135" x1="30.982" y1="45.7531" x2="65.8475" y2="64.1316" gradientUnits="userSpaceOnUse">
<stop stop-color="#3CA0D2"/>
<stop offset="1" stop-color="#48DCA6"/>
</linearGradient>
</defs>
</svg>
