<svg width="105" height="104" viewBox="0 0 105 104" fill="none" xmlns="http://www.w3.org/2000/svg">
<ellipse cx="58.3557" cy="44.7743" rx="43.4573" ry="43.7563" fill="white"/>
<path d="M17.1439 27.4557C23.1336 20.8609 27.9253 13.1146 34.7038 7.3759M16.0472 35.2632C26.703 24.7349 34.9782 13.1136 38.107 4.57929M16.2991 38.5388C23.3523 25.9418 31.1271 18.5878 43.503 6.93094M16.1777 40.7017C26.0055 28.1517 35.764 18.772 45.1267 5.53414M14 46.024C29.8455 27.7482 43.0991 12.6092 52.1161 3.09151M15.571 47.147C25.2387 34.8146 35.4368 22.3863 53.3339 1.96541M16.9844 49.8537C28.3087 36.367 40.0748 18.2006 54.2074 0.5M17.6299 52.6553C34.4145 33.8986 49.6621 13.7739 57.2192 0.772482M17.8792 57.1164C25.3714 41.9811 36.9613 30.2177 59.7087 1.66342M19.0756 57.7719C31.8889 39.268 49.079 21.171 65.7609 1.6774M20.1075 61.4531C35.3452 39.5416 54.9056 18.2824 64.7341 2.55144M20.7389 63.5213C33.4991 44.8206 45.3765 29.7071 69.8581 1.42708M20.7693 65.4984C34.8276 44.2998 50.6743 28.156 68.614 1.70063M19.6631 66.293C37.2089 46.1758 50.9538 28.8256 71.0891 5.62629M23.2272 67.5313C33.4172 55.8507 42.8886 44.3889 76.0613 4.53345M24.6125 69.1947C41.7342 49.4303 62.9971 24.7872 78.9813 5.95798M26.8405 71.6668C45.6343 46.5181 62.4506 25.6063 79.8249 8.46218M25.3862 75.1678C46.0625 48.685 69.4246 20.664 79.4824 6.0913M28.9475 73.1977C41.2888 59.806 54.5644 44.0846 82.0157 7.3684M30.3076 76.131C50.3455 54.0042 67.0544 32.2374 84.1623 10.423M30.1482 76.0039C48.846 59.6931 66.0408 39.2839 85.269 12.2035M32.2974 77.6266C54.0636 55.3357 72.4879 31.8958 88.0323 11.6229M34.5105 79.041C57.2965 55.8704 77.3423 27.579 89.4878 13.4178M33.9561 81.3124C46.5417 64.3504 62.9218 48.8251 90.2715 13.4694M37.187 81.3304C51.5525 64.866 64.8053 49.7203 92.0868 14.8295M40.6913 83.5219C57.1227 64.7759 75.3188 40.3528 94.3096 20.2659M40.9436 87.0763C56.6992 67.4942 69.0606 48.432 94.6513 18.9111M43.6172 85.2054C54.6451 69.0402 71.5968 54.267 95.369 22.5067M44.1203 87.5173C60.1037 64.75 77.6842 47.4013 95.1971 22.1156M47.7333 87.0005C65.4541 65.897 85.7939 41.0164 98.3724 25.5132M50.1108 86.3925C58.53 75.3113 72.1887 62.856 98.7084 29.078M50.7583 88.0469C66.0834 69.8214 84.6644 47.0802 100.064 28.7022M54.8446 88.9783C71.2035 66.267 85.4249 46.8854 99.1911 34.3776M56.0278 90.1884C70.6345 73.8336 83.3172 58.7807 99.6215 35.139M57.9552 90.5C70.3668 76.764 78.1897 63.2451 102.509 38.5244M62.1029 88.3472C77.395 72.7804 90.5152 58.5051 100.937 37.6505M63.9987 88.6032C74.5272 72.1726 86.0854 57.497 100.546 44.2703M67.0651 86.9579C81.9037 71.8303 92.6884 56.5054 101.008 45.8777M71.9795 87.2527C81.7305 72.1428 92.7531 59.4095 104 50.8779M75.2582 86.707C83.6317 74.7485 95.6843 62.3801 102.812 51.7048M79.2248 82.1991C87.6194 73.435 92.7768 66.5038 100.995 60.5468M83.0715 79.9248C88.2098 75.3517 94.068 67.448 99.6276 63.2043M27.4999 13.9881V13.9881Z" stroke="url(#paint0_linear_2_122)" stroke-width="0.5" stroke-linecap="round"/>
<g filter="url(#filter0_d_2_122)">
<g filter="url(#filter1_d_2_122)">
<circle cx="46.9863" cy="56.8838" r="36.9863" fill="white"/>
</g>
</g>
<path d="M60.2662 38.6025H30.8798C29.5129 38.6025 28.4048 39.7106 28.4048 41.0776V57.221C28.4048 58.5879 29.5129 59.696 30.8798 59.696H60.2662C61.6331 59.696 62.7412 58.5879 62.7412 57.221V41.0776C62.7412 39.7106 61.6331 38.6025 60.2662 38.6025Z" fill="url(#paint1_linear_2_122)"/>
<path d="M65.071 61.4453H26.2202C26.2202 61.4453 24.0524 67.4624 33.3515 67.4624H60.4147C60.4147 67.4624 67.2523 65.5073 65.797 61.4453" fill="url(#paint2_linear_2_122)"/>
<path d="M29.4547 54.7528L30.0692 42.9348C30.0692 42.6883 30.0895 42.4452 30.1131 42.1919C30.1435 41.3073 30.8289 40.8413 31.6427 40.713C34.5567 40.1086 37.5584 40.1626 40.5129 40.2302L52.3512 40.4969C53.4419 40.5442 58.7667 40.5948 59.7797 40.6961C61.5659 40.8785 61.8056 43.0091 61.6638 44.4374L61.3262 50.3498C61.2688 51.3222 61.1269 53.8378 61.0729 54.7798C61.0189 55.7219 60.9716 56.8328 60.3976 57.7039C59.4859 59.1052 57.6254 58.8317 56.1904 58.8148L50.2713 58.6629C48.0934 58.6089 37.4132 58.3252 35.4751 58.2712C34.4856 58.2757 33.4975 58.1989 32.5206 58.0416C30.8323 57.7917 29.1204 56.3803 29.35 54.5435C29.3895 54.2991 29.4718 54.0637 29.5931 53.8479C29.4756 54.0644 29.3967 54.2998 29.3601 54.5435C29.1643 56.3634 30.8627 57.7377 32.5341 57.9606C33.5088 58.103 34.4935 58.1663 35.4785 58.1496C37.3525 58.1496 48.1575 58.3995 50.2746 58.44L56.1938 58.5616C57.5849 58.5616 59.3036 58.8587 60.168 57.5486C60.9142 56.3466 60.715 54.6515 60.8433 53.284L60.9986 50.3295L61.3127 44.4171C61.4106 43.1239 61.3363 41.1992 59.7189 41.0034C58.8039 40.919 53.3811 40.8143 52.3411 40.7738L40.5028 40.4361C37.5551 40.3551 34.5803 40.2876 31.6764 40.8751C30.39 41.1013 30.2583 41.7294 30.2279 42.928L29.4513 54.7461L29.4547 54.7528Z" fill="#454545"/>
<path d="M52.5036 51.4404C53.6984 51.8312 54.8053 52.4518 55.762 53.2672C56.7431 54.059 57.5569 55.038 58.156 56.1474C57.6563 55.7624 57.1937 55.3606 56.7311 54.9656C55.4311 53.8446 53.8036 52.5682 52.5104 51.4472L52.5036 51.4404Z" fill="white"/>
<path d="M51.8311 50.8293C51.8648 52.3454 51.8615 53.8682 51.8311 55.3776L51.4293 55.2526C51.8209 54.5773 52.2329 53.8615 52.0506 53.0646C51.7838 52.0915 51.8565 51.0566 52.2565 50.1304C53.8907 50.7409 55.6423 50.9719 57.3788 50.8057V51.454C55.6036 51.3589 53.8236 51.412 52.0573 51.6127L52.1586 51.221C53.2594 51.9503 53.7659 53.0444 53.05 54.2599C52.8581 54.5869 52.6047 54.8735 52.3038 55.1041C53.0331 54.3815 53.5126 53.0781 52.7394 52.2374C52.3453 51.8638 51.9091 51.5374 51.4394 51.2649C53.4181 50.9745 55.4136 50.6672 57.4294 50.8057V51.454C55.7019 51.6481 53.9528 51.4424 52.3173 50.853L52.7292 50.6672C52.5819 51.0237 52.4974 51.403 52.4794 51.7883C52.4186 52.3859 52.6989 53.041 52.6077 53.6825C52.4726 54.3403 52.1885 54.9583 51.7771 55.489L51.3077 56.1846C51.4495 54.4017 51.5981 52.6088 51.7973 50.8361L51.8311 50.8293Z" fill="white"/>
<path d="M52.8751 52.2539C53.9691 52.3518 54.901 53.1048 55.6405 53.8544C56.4036 54.5297 56.8426 55.5798 57.9129 55.8094C56.7919 56.1471 55.887 54.9923 55.161 54.3271C54.4758 53.5559 53.7094 52.8608 52.8751 52.2539Z" fill="white"/>
<path d="M27.9454 63.7651C28.3843 65.1158 30.6736 64.8929 31.8352 65.136C32.9224 65.2643 35.097 65.4737 36.1876 65.5581C43.4568 66.119 50.7634 65.9697 58.0037 65.1124C59.2935 64.974 61.0426 64.7207 62.3459 64.5384C60.9176 64.849 59.4792 65.1191 58.0374 65.3589C50.072 66.6071 41.9699 66.7208 33.9726 65.6965L31.8183 65.3791C30.6365 65.0685 28.3303 65.2002 27.9623 63.7651H27.9454Z" fill="#454545"/>
<defs>
<filter id="filter0_d_2_122" x="0.136987" y="2.63699" width="93.6986" height="109.726" filterUnits="userSpaceOnUse" color-interpolation-filters="sRGB">
<feFlood flood-opacity="0" result="BackgroundImageFix"/>
<feColorMatrix in="SourceAlpha" type="matrix" values="0 0 0 0 0 0 0 0 0 0 0 0 0 0 0 0 0 0 127 0" result="hardAlpha"/>
<feOffset/>
<feGaussianBlur stdDeviation="4.93151"/>
<feComposite in2="hardAlpha" operator="out"/>
<feColorMatrix type="matrix" values="0 0 0 0 0 0 0 0 0 0 0 0 0 0 0 0 0 0 0.05 0"/>
<feBlend mode="normal" in2="BackgroundImageFix" result="effect1_dropShadow_2_122"/>
<feBlend mode="normal" in="SourceGraphic" in2="effect1_dropShadow_2_122" result="shape"/>
</filter>
<filter id="filter1_d_2_122" x="0" y="9.89746" width="93.9726" height="93.9727" filterUnits="userSpaceOnUse" color-interpolation-filters="sRGB">
<feFlood flood-opacity="0" result="BackgroundImageFix"/>
<feColorMatrix in="SourceAlpha" type="matrix" values="0 0 0 0 0 0 0 0 0 0 0 0 0 0 0 0 0 0 127 0" result="hardAlpha"/>
<feOffset/>
<feGaussianBlur stdDeviation="5"/>
<feComposite in2="hardAlpha" operator="out"/>
<feColorMatrix type="matrix" values="0 0 0 0 0 0 0 0 0 0 0 0 0 0 0 0 0 0 0.08 0"/>
<feBlend mode="normal" in2="BackgroundImageFix" result="effect1_dropShadow_2_122"/>
<feBlend mode="normal" in="SourceGraphic" in2="effect1_dropShadow_2_122" result="shape"/>
</filter>
<linearGradient id="paint0_linear_2_122" x1="23.2475" y1="12.38" x2="111.411" y2="58.3844" gradientUnits="userSpaceOnUse">
<stop stop-color="#3CA0D2"/>
<stop offset="1" stop-color="#48DCA6"/>
</linearGradient>
<linearGradient id="paint1_linear_2_122" x1="31.9329" y1="41.3869" x2="56.7917" y2="62.5021" gradientUnits="userSpaceOnUse">
<stop stop-color="#3CA0D2"/>
<stop offset="1" stop-color="#48DCA6"/>
</linearGradient>
<linearGradient id="paint2_linear_2_122" x1="30.1109" y1="62.2396" x2="33.9361" y2="75.5084" gradientUnits="userSpaceOnUse">
<stop stop-color="#3CA0D2"/>
<stop offset="1" stop-color="#48DCA6"/>
</linearGradient>
</defs>
</svg>
