<svg width="124" height="26" viewBox="0 0 124 26" fill="none" xmlns="http://www.w3.org/2000/svg">
<path d="M36.6057 22.3046H33.7886L35.209 19.1292L36.6057 22.3046ZM39.646 24.6105L36.0705 16.8028H36.0692C36.0005 16.6362 35.8921 16.4886 35.7362 16.3867C35.579 16.2824 35.3848 16.2357 35.1866 16.2368C34.9937 16.2357 34.8034 16.2848 34.6488 16.3867C34.4942 16.4886 34.3819 16.6325 34.3026 16.7993L34.3013 16.8017L30.7391 24.5853C30.6809 24.7041 30.6492 24.83 30.6492 24.9559C30.6479 25.1165 30.7034 25.2736 30.7972 25.4116C30.8804 25.5351 30.9927 25.6394 31.1302 25.7089C31.2676 25.7797 31.4248 25.8121 31.5834 25.8121C31.7565 25.8121 31.9269 25.7653 32.0775 25.6825C32.2453 25.5926 32.3748 25.4511 32.4528 25.2857L32.4554 25.2796L33.1095 23.8155H37.269L37.9125 25.2773C37.9825 25.4391 38.108 25.5795 38.2718 25.6717C38.4251 25.7605 38.6035 25.8109 38.7845 25.8097C38.9444 25.8097 39.1003 25.7809 39.2377 25.7161C39.3765 25.6514 39.4928 25.5507 39.576 25.4307L39.5773 25.4296C39.6724 25.294 39.7266 25.1358 39.7253 24.9739C39.7253 24.8516 39.6975 24.7305 39.646 24.6129L39.6434 24.6081L39.646 24.6105Z" fill="white"/>
<path d="M48.7154 16.4834C48.5436 16.3179 48.2953 16.234 48.0415 16.2364C47.7932 16.234 47.55 16.3203 47.3743 16.4774C47.1906 16.6369 47.0955 16.8647 47.0981 17.0974V22.5152C47.0968 22.8893 46.9964 23.2035 46.7956 23.4817C46.5921 23.7623 46.3146 23.9817 45.9447 24.146C45.5786 24.3079 45.1532 24.3918 44.655 24.393C44.1397 24.393 43.6958 24.3079 43.3113 24.1448C42.9241 23.9793 42.6347 23.7599 42.4233 23.4793C42.2159 23.2022 42.1128 22.8893 42.1115 22.5176V17.0998C42.1142 16.8683 42.0243 16.6441 41.8459 16.4834L41.8446 16.4822C41.6702 16.3191 41.4218 16.2352 41.1681 16.2375C40.9197 16.2352 40.6766 16.3215 40.5008 16.4786L40.4995 16.4798C40.3171 16.6393 40.2207 16.8671 40.2233 17.0998V22.5176C40.2233 23.1866 40.4136 23.7994 40.7954 24.3283C41.1747 24.8559 41.7085 25.2708 42.3731 25.5622C43.043 25.856 43.8068 25.9999 44.6524 25.9999C45.4742 25.9999 46.2181 25.856 46.8708 25.561C47.521 25.2684 48.0402 24.8535 48.4102 24.3258C48.7828 23.797 48.9691 23.1855 48.9691 22.5176V17.0998C48.9717 16.8707 48.8859 16.6477 48.7128 16.487L48.7115 16.4858L48.7154 16.4834Z" fill="white"/>
<path d="M58.1772 16.4702L58.176 16.469C58.0107 16.3143 57.7756 16.234 57.5364 16.2364H50.7541C50.5149 16.234 50.2798 16.3143 50.1146 16.469L50.1133 16.4702C49.9455 16.6213 49.8583 16.8347 49.8609 17.0506C49.8583 17.2676 49.9455 17.4811 50.1133 17.6322C50.2785 17.7869 50.5149 17.8672 50.7528 17.8648H53.2065V24.9494C53.2038 25.1772 53.3003 25.4015 53.4787 25.561C53.6531 25.7241 53.8989 25.8128 54.1486 25.8104C54.3997 25.8128 54.6454 25.7241 54.8198 25.561C54.9969 25.4015 55.0947 25.1785 55.092 24.9506V17.8661H57.5338C57.7703 17.8685 58.0068 17.7881 58.1733 17.6334C58.3411 17.4811 58.4283 17.2676 58.4257 17.0518C58.4283 16.836 58.3411 16.6225 58.1733 16.4714L58.1772 16.4702Z" fill="white"/>
<path d="M63.5472 24.3226C63.0332 24.3226 62.5681 24.2374 62.1453 24.0708C61.7185 23.9029 61.3552 23.6714 61.0473 23.3765C60.7394 23.0803 60.4989 22.7337 60.3259 22.3296C60.1528 21.9279 60.0655 21.4938 60.0655 21.0189C60.0655 20.5453 60.1528 20.1112 60.3259 19.7095C60.4989 19.3053 60.7394 18.9576 61.0473 18.6614C61.3552 18.3664 61.7172 18.1386 62.1439 17.9743C62.5668 17.81 63.0319 17.7284 63.5472 17.7284C64.0638 17.7284 64.5289 17.8112 64.9504 17.9743C65.3772 18.1386 65.7432 18.3676 66.0551 18.6638C66.3669 18.96 66.6047 19.3053 66.7752 19.7083C66.9443 20.1112 67.0288 20.5465 67.0302 21.0202C67.0302 21.495 66.9443 21.9303 66.7752 22.332C66.606 22.7349 66.3669 23.0803 66.0551 23.3765C65.7419 23.6727 65.3759 23.9041 64.9491 24.072C64.5262 24.2387 64.0625 24.3238 63.5472 24.3238V24.3226ZM67.3764 17.503C66.902 17.0641 66.3364 16.7236 65.6903 16.4837C65.0403 16.2415 64.3228 16.1216 63.5472 16.1216C62.7716 16.1216 62.0528 16.2415 61.4001 16.4825C60.7487 16.7223 60.1845 17.0641 59.7128 17.5042C59.2423 17.9431 58.8764 18.4636 58.6187 19.0571C58.3598 19.6543 58.2316 20.3114 58.2316 21.0189C58.2316 21.7276 58.3584 22.3848 58.6187 22.9868C58.8764 23.5839 59.2423 24.108 59.7128 24.5468C60.1845 24.9869 60.75 25.3287 61.4001 25.5685C62.0541 25.8095 62.7716 25.9294 63.5472 25.9294C64.3228 25.9294 65.0389 25.8095 65.6903 25.5685C66.3364 25.3287 66.902 24.9869 67.3764 24.5481C67.852 24.1091 68.2207 23.5851 68.4784 22.9879C68.7373 22.3872 68.8655 21.7288 68.8655 21.0202C68.8655 20.3114 68.7373 19.6555 68.4784 19.0583C68.2207 18.4647 67.852 17.9431 67.3764 17.5042V17.503Z" fill="white"/>
<path d="M80.5681 16.4774C80.3941 16.3203 80.1506 16.234 79.9007 16.2364C79.7288 16.2364 79.5598 16.2747 79.4158 16.3563C79.2705 16.4366 79.1573 16.5541 79.0714 16.6921L79.0671 16.6969L75.6475 23.1291L72.1406 16.7005L72.1355 16.6921C72.0496 16.5541 71.935 16.4366 71.7904 16.3563C71.6457 16.276 71.4776 16.2364 71.3058 16.2364C71.0574 16.234 70.8129 16.3203 70.6385 16.4774L70.6372 16.4786C70.4535 16.6381 70.3584 16.8659 70.361 17.0986V24.9518C70.3584 25.1796 70.4562 25.4039 70.6332 25.5622C70.8077 25.7253 71.0534 25.8152 71.3045 25.8116C71.5555 25.814 71.8011 25.7253 71.9758 25.5622C72.1542 25.4027 72.2508 25.1785 72.248 24.9506V20.3926L74.7373 24.9578L74.7387 24.9614C74.8175 25.1125 74.9342 25.2432 75.0846 25.3332C75.235 25.4231 75.4176 25.465 75.6017 25.465C75.7628 25.465 75.9254 25.4291 76.0636 25.3547C76.204 25.2816 76.3185 25.1737 76.4102 25.0454L76.4181 25.0333L78.9547 20.3015V24.9506C78.9525 25.1785 79.0485 25.4027 79.2268 25.5622C79.4015 25.7253 79.6472 25.814 79.8971 25.8116C80.1427 25.814 80.3834 25.7229 80.5574 25.5658C80.7414 25.4063 80.8431 25.1809 80.8403 24.9518V17.0986C80.8431 16.8659 80.7479 16.6381 80.5653 16.4786L80.5645 16.4774H80.5681Z" fill="white"/>
<path d="M87.7232 22.3046H84.9059L86.3253 19.1292L87.7217 22.3046H87.7232ZM87.1882 16.8028H87.1868C87.118 16.6362 87.0099 16.4886 86.8538 16.3867C86.6962 16.2824 86.5022 16.2357 86.3038 16.2368C86.1126 16.2357 85.9221 16.2848 85.7674 16.3867C85.6127 16.4886 85.501 16.6325 85.4215 16.7993L81.858 24.5853H81.8594C81.8007 24.7041 81.7692 24.83 81.7692 24.9559C81.7692 25.1165 81.8236 25.2736 81.9174 25.4116C82.0019 25.5351 82.1129 25.6394 82.2518 25.7089C82.3893 25.7797 82.5462 25.8121 82.7044 25.8121C82.8778 25.8121 83.0482 25.7653 83.1993 25.6825C83.3669 25.5926 83.4965 25.4511 83.5746 25.2857L83.5767 25.2796L84.2305 23.8155H88.3906L89.0337 25.2773C89.1025 25.4391 89.2292 25.5795 89.3932 25.6717C89.5465 25.7605 89.7248 25.8109 89.906 25.8097C90.0657 25.8097 90.2218 25.7809 90.3593 25.7161C90.4982 25.6514 90.6142 25.5507 90.6973 25.4307L90.6987 25.4296C90.794 25.294 90.8477 25.1358 90.847 24.9739C90.847 24.8516 90.8176 24.7305 90.7675 24.6129L87.1896 16.8004L87.1882 16.8028Z" fill="white"/>
<path d="M97.949 16.469C97.7836 16.3143 97.5472 16.234 97.3095 16.2364H90.5269C90.2891 16.234 90.0542 16.3143 89.8874 16.469L89.8859 16.4702C89.7184 16.6213 89.631 16.8347 89.6339 17.0506C89.631 17.2676 89.7184 17.4811 89.8859 17.6322C90.0528 17.7869 90.2891 17.8672 90.5255 17.8648H92.9804V24.9494C92.9782 25.1772 93.0742 25.4015 93.2525 25.561C93.4273 25.7241 93.6729 25.8128 93.9228 25.8104C94.1735 25.8128 94.4198 25.7241 94.5924 25.561H94.5939C94.7707 25.4015 94.8689 25.1785 94.866 24.9506V17.8661H97.308C97.5458 17.8685 97.7821 17.7881 97.9476 17.6334C98.1166 17.4811 98.2025 17.2676 98.2011 17.0518C98.2039 16.836 98.1151 16.6225 97.949 16.4714L97.9476 16.4702L97.949 16.469Z" fill="white"/>
<path d="M100.712 16.481C100.537 16.3179 100.289 16.234 100.035 16.2364C99.7866 16.234 99.5438 16.3203 99.3677 16.4774L99.3662 16.4786C99.1843 16.6381 99.0877 16.8659 99.0905 17.0986V24.9518C99.0877 25.1796 99.1858 25.4039 99.3626 25.5622H99.3641C99.5381 25.7253 99.783 25.8152 100.034 25.8116C100.289 25.8152 100.54 25.7265 100.714 25.5586L100.715 25.5574C100.887 25.3967 100.981 25.1761 100.978 24.9506V17.0974C100.98 16.8659 100.889 16.6417 100.712 16.481L100.71 16.4798L100.712 16.481Z" fill="white"/>
<path d="M107.806 24.3226C107.291 24.3226 106.827 24.2374 106.404 24.0708C105.976 23.9029 105.614 23.6714 105.305 23.3765C104.997 23.0803 104.758 22.7337 104.583 22.3296C104.41 21.9279 104.323 21.4938 104.323 21.0189C104.323 20.5453 104.41 20.1112 104.583 19.7095C104.758 19.3053 104.997 18.9576 105.305 18.6614C105.613 18.3664 105.974 18.1386 106.401 17.9743C106.826 17.81 107.289 17.7284 107.806 17.7284C108.321 17.7284 108.788 17.8112 109.209 17.9743C109.637 18.1386 110.002 18.3676 110.314 18.6638C110.626 18.96 110.863 19.3053 111.032 19.7083C111.201 20.1112 111.287 20.5465 111.287 21.0202C111.287 21.495 111.201 21.9303 111.032 22.332C110.863 22.7349 110.624 23.0803 110.314 23.3765C110 23.6727 109.634 23.9041 109.208 24.072C108.785 24.2387 108.32 24.3238 107.806 24.3238V24.3226ZM111.634 17.503C111.159 17.0641 110.594 16.7236 109.947 16.4837C109.298 16.2415 108.582 16.1216 107.806 16.1216C107.031 16.1216 106.312 16.2415 105.658 16.4825C105.007 16.7223 104.443 17.0641 103.97 17.5042C103.5 17.9431 103.134 18.4636 102.876 19.0571C102.617 19.6543 102.489 20.3114 102.489 21.0189C102.489 21.7276 102.616 22.3848 102.876 22.9868C103.134 23.5839 103.5 24.108 103.97 24.5468C104.442 24.9869 105.007 25.3287 105.658 25.5685C106.313 25.8095 107.031 25.9294 107.806 25.9294C108.582 25.9294 109.298 25.8095 109.947 25.5685C110.594 25.3287 111.159 24.9869 111.634 24.5481C112.109 24.1091 112.478 23.5851 112.736 22.9879C112.995 22.3872 113.123 21.7288 113.123 21.0202C113.123 20.3114 112.995 19.6555 112.736 19.0583C112.478 18.4647 112.109 17.9431 111.634 17.5042V17.503Z" fill="white"/>
<path d="M122.922 16.4846L122.92 16.4835C122.748 16.318 122.5 16.2341 122.246 16.2364C121.998 16.2341 121.755 16.3204 121.579 16.4775C121.395 16.637 121.3 16.8648 121.303 17.0974V22.6663L116.284 16.5566L116.278 16.5494C116.101 16.3516 115.832 16.2328 115.554 16.2364C115.305 16.2341 115.061 16.3204 114.889 16.4811C114.711 16.6406 114.62 16.866 114.624 17.0974V24.9507C114.621 25.1761 114.715 25.3979 114.886 25.5587C115.057 25.7253 115.304 25.8153 115.555 25.8116C115.81 25.8153 116.061 25.7266 116.236 25.5587L116.237 25.5574C116.409 25.3968 116.501 25.1761 116.498 24.9507V19.395L121.514 25.4999L121.517 25.5035C121.608 25.6114 121.733 25.6917 121.871 25.7421H121.872C121.996 25.7865 122.122 25.8116 122.249 25.8116C122.504 25.8153 122.756 25.7253 122.927 25.5563L122.928 25.555C123.095 25.3944 123.183 25.1749 123.181 24.9507V17.0974C123.183 16.8684 123.097 16.6454 122.925 16.4846H122.922Z" fill="white"/>
<path d="M38.3973 7.70805C38.1462 7.82316 37.8516 7.88315 37.4988 7.88315H36.1603V5.05792H37.4988C37.8489 5.05792 38.1396 5.12267 38.3893 5.24619C38.6431 5.3721 38.8333 5.54118 38.9787 5.76542C39.12 5.98607 39.1927 6.23789 39.1927 6.54005C39.1927 6.80751 39.1227 7.03052 38.984 7.23201C38.8412 7.43584 38.6523 7.59053 38.3986 7.70805H38.3973ZM34.5457 12.7541C34.7201 12.9159 34.9645 13.0059 35.2155 13.0035C35.4706 13.0059 35.7216 12.9183 35.896 12.7505L35.8974 12.7493C36.0691 12.5886 36.1616 12.3679 36.159 12.1425V9.51159H37.4975C37.5239 9.51159 37.5477 9.50795 37.5741 9.50795L39.6644 12.5898C39.7517 12.7217 39.8719 12.8332 40.0212 12.904C40.1599 12.9711 40.3171 13.0035 40.477 13.0035C40.6488 13.0035 40.8166 12.9711 40.9619 12.8956C41.1086 12.8201 41.2249 12.7025 41.3002 12.567C41.365 12.4519 41.3993 12.3248 41.3993 12.1953C41.3993 12.0166 41.3345 11.8439 41.2249 11.6833L39.4464 9.06311C39.9155 8.81729 40.2986 8.48873 40.5735 8.07736C40.8761 7.62648 41.028 7.10605 41.0267 6.54005C41.0267 5.9381 40.8787 5.39368 40.5762 4.92482C40.2775 4.45955 39.8521 4.08901 39.3209 3.8252C38.7857 3.55898 38.1713 3.42827 37.4975 3.42827H35.2155C34.9672 3.42587 34.724 3.51221 34.5483 3.6693L34.547 3.6705C34.3646 3.82999 34.2695 4.05663 34.2708 4.29046V12.1437C34.2682 12.3715 34.366 12.5946 34.543 12.7541L34.5444 12.7553L34.5457 12.7541Z" fill="white"/>
<path d="M47.1458 11.5142C46.6318 11.5142 46.1667 11.4291 45.7439 11.2624C45.3171 11.0945 44.9537 10.863 44.6459 10.5681C44.338 10.2719 44.0975 9.92533 43.9244 9.52001C43.7513 9.11833 43.6655 8.68421 43.6641 8.20935C43.6641 7.73571 43.7513 7.3016 43.9244 6.89985C44.0989 6.49457 44.338 6.14801 44.6459 5.85302C44.9525 5.55802 45.3158 5.33019 45.7426 5.16471C46.1654 5.00042 46.6305 4.91888 47.1458 4.91768C47.6611 4.91768 48.1275 5.00042 48.549 5.16471C48.9758 5.33019 49.3418 5.55802 49.6536 5.85422C49.9655 6.14921 50.2033 6.49457 50.3724 6.89751C50.5416 7.30043 50.6275 7.73571 50.6275 8.20935C50.6275 8.68421 50.5416 9.1195 50.3737 9.52125C50.2046 9.92416 49.9655 10.2707 49.6536 10.5669C49.3418 10.863 48.9758 11.0933 48.5477 11.2624C48.1249 11.4291 47.6598 11.5142 47.1458 11.5142ZM52.0756 6.24874C51.818 5.65516 51.4493 5.13353 50.9736 4.69464C50.4993 4.25575 49.9337 3.91518 49.2876 3.67416C48.6376 3.43193 47.9201 3.31201 47.1445 3.31201C46.3688 3.31201 45.6501 3.43193 44.9974 3.67416C44.346 3.91399 43.7818 4.25575 43.3101 4.69584C42.8396 5.13472 42.4737 5.65516 42.216 6.24874C41.957 6.8459 41.8289 7.50302 41.8289 8.21058C41.8289 8.91924 41.9557 9.57636 42.216 10.1784C42.4737 10.7767 42.8396 11.2984 43.3101 11.7385C43.7818 12.1774 44.3472 12.5191 44.9974 12.7601C45.6514 13.0024 46.3688 13.1211 47.1445 13.1211C47.9201 13.1211 48.6362 13.0012 49.2876 12.7601C49.9337 12.5203 50.4993 12.1785 50.9736 11.7397C51.4493 11.3007 51.818 10.7767 52.0756 10.1795C52.3346 9.57877 52.4628 8.92048 52.4628 8.21175C52.4628 7.50302 52.3346 6.84714 52.0756 6.24994V6.24874Z" fill="white"/>
<path d="M56.1121 12.7532C56.7821 13.047 57.5458 13.1909 58.3914 13.1909C59.2133 13.1909 59.9572 13.047 60.6099 12.752C61.26 12.4594 61.7793 12.0445 62.1492 11.5169C62.5218 10.9881 62.7082 10.3777 62.7082 9.70855V4.29079C62.7108 4.06175 62.6249 3.83871 62.4518 3.67802L62.4505 3.67682C62.2787 3.51134 62.0303 3.4274 61.7766 3.4298C61.5269 3.4274 61.2838 3.51254 61.1094 3.67083C60.9244 3.83031 60.8292 4.05935 60.8332 4.29079V9.70855C60.8332 10.0827 60.7315 10.3969 60.5307 10.6751C60.3271 10.9557 60.0497 11.1751 59.6797 11.3394C59.3137 11.5013 58.8883 11.5852 58.3914 11.5852C57.8761 11.5852 57.4321 11.5001 57.049 11.337C56.6605 11.1715 56.3725 10.9521 56.161 10.6715C55.9536 10.3933 55.8505 10.0815 55.8492 9.70855V4.29079C55.8519 4.05935 55.7607 3.83511 55.5836 3.67442V3.67322C55.4092 3.51134 55.1608 3.4262 54.9072 3.4298C54.6574 3.4274 54.4143 3.51373 54.2398 3.67083L54.2386 3.67202C54.0562 3.83151 53.9611 4.05815 53.9624 4.29198V9.70979C53.9624 10.3789 54.1527 10.9917 54.5358 11.5205C54.915 12.0481 55.4488 12.463 56.1135 12.7544L56.1121 12.7532Z" fill="white"/>
<path d="M71.9108 3.66091C71.7461 3.50742 71.5107 3.42588 71.2715 3.42827H64.4892C64.2514 3.42588 64.0149 3.50622 63.8497 3.66091L63.8484 3.66211C63.6806 3.8132 63.5934 4.02665 63.596 4.2437C63.5934 4.46075 63.6806 4.67419 63.8497 4.82529C64.0149 4.97998 64.2514 5.06032 64.4892 5.05792H66.9443V12.1437C66.9416 12.3716 67.0381 12.5946 67.2165 12.7541C67.3908 12.9172 67.6353 13.0071 67.8863 13.0047C68.1374 13.0071 68.3831 12.9172 68.5562 12.7553L68.5576 12.7541C68.7346 12.5946 68.8324 12.3716 68.8297 12.1437V5.05792H71.2715C71.508 5.06032 71.7461 4.97998 71.9108 4.82529C72.0791 4.67419 72.1657 4.45954 72.1636 4.2437C72.1657 4.02665 72.0791 3.8144 71.9108 3.66211L71.9101 3.66091H71.9108Z" fill="white"/>
<path d="M73.3273 12.7556C73.502 12.9175 73.7463 13.0074 73.9991 13.005C74.254 13.0074 74.5046 12.9199 74.6794 12.752L74.6808 12.7508C74.852 12.5901 74.9451 12.3695 74.9422 12.1441V4.29079C74.9451 4.05935 74.8534 3.83511 74.6765 3.67442L74.6751 3.67322C74.5011 3.51134 74.2526 3.4262 73.9991 3.4298C73.7491 3.4274 73.5056 3.51373 73.3316 3.67083L73.3302 3.67202C73.1476 3.83151 73.0516 4.05815 73.0537 4.29198V12.1452C73.0516 12.373 73.149 12.5961 73.3259 12.7556L73.3273 12.7568V12.7556Z" fill="white"/>
<path d="M85.2103 12.7481L85.2117 12.7469C85.3779 12.585 85.4667 12.3668 85.4652 12.1425V4.28929C85.4674 4.06026 85.3822 3.83721 85.2089 3.67653L85.2074 3.67533C85.0356 3.50985 84.7871 3.4259 84.5335 3.4283C84.285 3.4259 84.0423 3.51104 83.8661 3.66933C83.6828 3.82882 83.5875 4.05786 83.5904 4.28929V9.85815L78.5717 3.74848L78.5652 3.74128C78.3883 3.54342 78.1183 3.42471 77.8398 3.4283C77.5913 3.4259 77.3471 3.51225 77.1766 3.67293C76.9983 3.83362 76.9066 4.05906 76.9095 4.28929V12.1425C76.9066 12.368 77.0004 12.5898 77.1723 12.7505C77.3442 12.9172 77.5898 13.0071 77.8412 13.0036C78.0961 13.006 78.3475 12.9184 78.5215 12.7505L78.523 12.7493C78.6948 12.5886 78.7886 12.368 78.7844 12.1425V6.58568L83.8002 12.6905L83.8045 12.6942C83.8955 12.8021 84.0208 12.8824 84.1569 12.9328H84.1583C84.2822 12.9772 84.4082 13.0023 84.535 13.0023C84.7899 13.006 85.042 12.916 85.2117 12.7469L85.2103 12.7481Z" fill="white"/>
<path d="M87.7045 12.7556C87.8793 12.9175 88.1249 13.0074 88.3755 13.0049H94.1061C94.3546 13.0074 94.5995 12.9318 94.7736 12.776C94.9504 12.6237 95.0392 12.403 95.0364 12.1788C95.0407 11.9605 94.9469 11.7435 94.77 11.5972C94.5938 11.4461 94.3517 11.3741 94.1061 11.3765H89.3194V8.99144H92.6738C92.9238 8.99378 93.1673 8.91826 93.3413 8.76239C93.516 8.61251 93.6084 8.39542 93.6041 8.17716C93.607 7.95897 93.5146 7.74311 93.3413 7.59199C93.1673 7.43613 92.9238 7.36054 92.6738 7.36294H89.3194V5.05939H94.1061C94.3532 5.06179 94.5938 4.98984 94.7685 4.83995L94.77 4.83875C94.9469 4.69245 95.0407 4.4754 95.0364 4.25716C95.0392 4.03412 94.949 3.81347 94.7736 3.65998L94.7721 3.65878C94.5981 3.50289 94.3546 3.42734 94.1061 3.42974H88.3755C88.1278 3.42734 87.8843 3.51369 87.7088 3.67077L87.7074 3.67197C87.5248 3.83146 87.4295 4.0581 87.4309 4.29194V12.1452C87.4288 12.373 87.5262 12.5961 87.7031 12.7556V12.7567L87.7045 12.7556Z" fill="white"/>
<path d="M18.131 17.3289C18.1562 17.3146 18.1799 17.3002 18.1998 17.2894C19.8064 16.438 21.0366 15.2161 21.8479 13.8382C22.6724 12.4412 23.0846 10.8835 23.0846 9.3222C23.0846 7.16014 22.2892 4.96329 20.6151 3.22213C18.9476 1.47736 16.3974 0.259017 13.2211 0.00719492L13.0519 0H7.64246C3.42087 0.00119915 0.00132131 3.1046 0 6.93467V24.0454C0 24.9388 0.720117 25.7362 1.69921 25.8213C2.82364 25.9197 3.76838 25.1186 3.76838 24.1198V6.93467C3.7697 5.95859 4.19912 5.0916 4.90339 4.45006C5.61028 3.81091 6.56691 3.42118 7.64117 3.41998H12.9052C12.9409 3.41998 12.9779 3.42238 13.0122 3.42478C15.2823 3.64422 16.7688 4.43567 17.7756 5.47054C18.797 6.52941 19.3149 7.91203 19.3149 9.32104C19.3149 10.3343 19.0427 11.3476 18.5261 12.2206C18.0068 13.0959 17.2563 13.8335 16.2587 14.3551L16.1227 14.4342L16.0909 14.4522C16.0539 14.4737 15.9826 14.5109 15.8927 14.5541V14.5553L18.131 17.3289Z" fill="white"/>
<path d="M15.894 14.5552L18.1336 17.3324L18.131 17.3289L15.894 14.5552H15.8927L9.09985 6.13477L15.894 14.5552Z" fill="white"/>
<path d="M7.58557 14.5409C7.58292 14.5409 7.57898 14.5409 7.57633 14.5409C6.54044 14.5409 5.69745 15.3011 5.69216 16.2425C5.68688 17.1874 6.52591 17.9561 7.5671 17.9609C7.56846 17.9609 13.0651 17.9645 13.9688 17.9609L11.2073 14.5361C9.16853 14.5361 7.59087 14.5397 7.58557 14.5397V14.5409Z" fill="#3FA0D2"/>
<path d="M23.0993 23.7145C23.0424 23.4974 22.9393 23.2887 22.7847 23.0981L18.1337 17.3326L15.8941 14.5565L9.09996 6.13487C8.73128 5.678 8.15787 5.43457 7.57779 5.43457C7.19065 5.43457 6.80219 5.54249 6.46658 5.76433C5.94202 6.11329 5.67378 6.66248 5.69625 7.21053C5.7055 7.42996 5.761 7.64939 5.86537 7.85563C5.91823 7.95878 5.98166 8.05829 6.05961 8.15422L11.2074 14.5349L13.969 17.9597L19.7444 25.1175C19.8369 25.2314 19.9413 25.3321 20.0562 25.4197C20.1712 25.506 20.2954 25.5803 20.4263 25.6391C20.6879 25.7566 20.9759 25.8178 21.2666 25.8178C21.4595 25.8178 21.6537 25.7902 21.8414 25.7362C22.029 25.6811 22.2113 25.5983 22.3791 25.4868C22.6936 25.2769 22.9156 24.9963 23.0385 24.6858C23.1613 24.3764 23.1838 24.037 23.1005 23.7132L23.0993 23.7145Z" fill="#48DCA6"/>
</svg>
