<svg width="105" height="105" viewBox="0 0 105 105" fill="none" xmlns="http://www.w3.org/2000/svg">
<ellipse cx="58.3557" cy="45.2743" rx="43.4573" ry="43.7563" fill="white"/>
<path d="M17.1439 27.9557C23.1336 21.3609 27.9253 13.6146 34.7038 7.8759M16.0472 35.7632C26.703 25.2349 34.9782 13.6136 38.107 5.07929M16.2991 39.0388C23.3523 26.4418 31.1271 19.0878 43.503 7.43094M16.1777 41.2017C26.0055 28.6517 35.764 19.272 45.1267 6.03414M14 46.524C29.8455 28.2482 43.0991 13.1092 52.1161 3.59151M15.571 47.647C25.2387 35.3146 35.4368 22.8863 53.3339 2.46541M16.9844 50.3537C28.3087 36.867 40.0748 18.7006 54.2074 1M17.6299 53.1553C34.4145 34.3986 49.6621 14.2739 57.2192 1.27248M17.8792 57.6164C25.3714 42.4811 36.9613 30.7177 59.7087 2.16342M19.0756 58.2719C31.8889 39.768 49.079 21.671 65.7609 2.1774M20.1075 61.9531C35.3452 40.0416 54.9056 18.7824 64.7341 3.05144M20.7389 64.0213C33.4991 45.3206 45.3765 30.2071 69.8581 1.92708M20.7693 65.9984C34.8276 44.7998 50.6743 28.656 68.614 2.20063M19.6631 66.793C37.2089 46.6758 50.9538 29.3256 71.0891 6.12629M23.2272 68.0313C33.4172 56.3507 42.8886 44.8889 76.0613 5.03345M24.6125 69.6947C41.7342 49.9303 62.9971 25.2872 78.9813 6.45798M26.8405 72.1668C45.6343 47.0181 62.4506 26.1063 79.8249 8.96218M25.3862 75.6678C46.0625 49.185 69.4246 21.164 79.4824 6.5913M28.9475 73.6977C41.2888 60.306 54.5644 44.5846 82.0157 7.8684M30.3076 76.631C50.3455 54.5042 67.0544 32.7374 84.1623 10.923M30.1482 76.5039C48.846 60.1931 66.0408 39.7839 85.269 12.7035M32.2974 78.1266C54.0636 55.8357 72.4879 32.3958 88.0323 12.1229M34.5105 79.541C57.2965 56.3704 77.3423 28.079 89.4878 13.9178M33.9561 81.8124C46.5417 64.8504 62.9218 49.3251 90.2715 13.9694M37.187 81.8304C51.5525 65.366 64.8053 50.2203 92.0868 15.3295M40.6913 84.0219C57.1227 65.2759 75.3188 40.8528 94.3096 20.7659M40.9436 87.5763C56.6992 67.9942 69.0606 48.932 94.6513 19.4111M43.6172 85.7054C54.6451 69.5402 71.5968 54.767 95.369 23.0067M44.1203 88.0173C60.1037 65.25 77.6842 47.9013 95.1971 22.6156M47.7333 87.5005C65.4541 66.397 85.7939 41.5164 98.3724 26.0132M50.1108 86.8925C58.53 75.8113 72.1887 63.356 98.7084 29.578M50.7583 88.5469C66.0834 70.3214 84.6644 47.5802 100.064 29.2022M54.8446 89.4783C71.2035 66.767 85.4249 47.3854 99.1911 34.8776M56.0278 90.6884C70.6345 74.3336 83.3172 59.2807 99.6215 35.639M57.9552 91C70.3668 77.264 78.1897 63.7451 102.509 39.0244M62.1029 88.8472C77.395 73.2804 90.5152 59.0051 100.937 38.1505M63.9987 89.1032C74.5272 72.6726 86.0854 57.997 100.546 44.7703M67.0651 87.4579C81.9037 72.3303 92.6884 57.0054 101.008 46.3777M71.9795 87.7527C81.7305 72.6428 92.7531 59.9095 104 51.3779M75.2582 87.207C83.6317 75.2485 95.6843 62.8801 102.812 52.2048M79.2248 82.6991C87.6194 73.935 92.7768 67.0038 100.995 61.0468M83.0715 80.4248C88.2098 75.8517 94.068 67.948 99.6276 63.7043M27.4999 14.4881V14.4881Z" stroke="url(#paint0_linear_2_109)" stroke-width="0.5" stroke-linecap="round"/>
<g filter="url(#filter0_d_2_109)">
<g filter="url(#filter1_d_2_109)">
<circle cx="46.9863" cy="57.3838" r="36.9863" fill="white"/>
</g>
</g>
<path d="M32.8547 62.6708L31.4921 68.9267L38.6057 65.2511C38.6057 65.2511 52.2276 70.8499 64.3347 61.5941C76.4418 52.3383 61.1566 41.7534 61.1566 41.7534C61.1566 41.7534 56.7682 36.4034 43.2985 38.8984C29.8289 41.3933 27.8611 48.3509 27.8611 48.3509C27.8611 48.3509 24.5308 56.4149 32.8547 62.6708Z" fill="url(#paint1_linear_2_109)"/>
<path d="M37.9375 52.3422C37.7902 52.3937 37.6628 52.4902 37.5735 52.6182C37.4842 52.7462 37.4375 52.899 37.44 53.055C37.8855 53.1256 38.6281 53.3966 39.1701 53.2072C39.3044 53.175 39.4308 53.1159 39.5416 53.0335C39.6524 52.951 39.7453 52.847 39.8147 52.7276C39.8841 52.6082 39.9286 52.4759 39.9454 52.3389C39.9623 52.2018 39.9511 52.0627 39.9127 51.9301C39.4226 51.1356 38.2865 51.9524 37.7927 52.383C36.6789 53.5562 38.4127 54.0575 39.3743 53.7122C39.6414 53.6506 39.8937 53.5371 40.1169 53.378C40.9968 52.7209 40.2839 51.195 39.2592 51.1504C38.7329 51.1296 38.2157 51.2917 37.7953 51.6091C37.375 51.9266 37.0776 52.3798 36.9536 52.8917C36.872 53.9683 38.2011 54.5178 39.1441 54.1354C40.1057 53.8347 41.1081 52.9251 40.9596 51.8558C40.94 51.6193 40.8515 51.3937 40.705 51.207C40.5585 51.0202 40.3605 50.8805 40.1354 50.8051C39.185 50.5675 37.789 50.872 36.9202 51.3286C36.0515 51.7853 35.6319 53.0847 36.6009 53.7382C37.3145 54.1736 38.139 54.3927 38.9746 54.369C39.8102 54.3452 40.6209 54.0797 41.3086 53.6045C43.4063 51.6479 39.4523 49.8324 37.7333 50.1591C36.0255 50.2297 34.6555 52.5427 36.1034 53.7976C37.4808 54.8037 39.7753 55.0339 41.0302 53.6936C40.6376 54.1703 40.1008 54.5065 39.5005 54.6515C38.1157 54.9708 36.0218 54.6515 35.3201 53.2555C35.1503 52.7919 35.1182 52.289 35.2275 51.8075C35.3369 51.326 35.583 50.8864 35.9364 50.5415C37.6776 48.5181 43.4991 50.2631 42.363 53.2778C41.2492 55.5054 36.6826 55.7022 35.476 53.4894C34.6703 51.5625 36.7346 50.2854 38.3682 50.1034C39.2666 49.9141 40.5958 49.8621 41.2529 50.768C42.8457 53.0439 39.5117 55.8581 37.2989 54.6515C36.9721 54.4775 36.7029 54.2121 36.5243 53.8878C36.3456 53.5634 36.2652 53.1941 36.2928 52.8248C36.5749 50.7049 40.0055 49.4834 40.8854 51.8335C41.0318 52.1647 41.0627 52.5354 40.9732 52.8861C40.8836 53.2369 40.6788 53.5474 40.3916 53.7679C39.4374 54.451 37.1021 54.6106 37.0502 53.0253C37.0687 51.9672 39.5859 50.5787 40.128 51.8447C40.174 52.0042 40.1868 52.1715 40.1656 52.3361C40.1444 52.5008 40.0897 52.6593 40.0048 52.802C39.9199 52.9447 39.8066 53.0684 39.672 53.1656C39.5374 53.2627 39.3842 53.3313 39.2221 53.3669C38.5972 53.4493 37.9617 53.3501 37.3917 53.081C37.3864 52.9124 37.4386 52.747 37.5399 52.612C37.6411 52.477 37.7853 52.3806 37.9486 52.3385L37.9375 52.3422Z" fill="white"/>
<path d="M47.2684 52.3421C47.1211 52.3936 46.9937 52.4901 46.9044 52.6181C46.8151 52.7461 46.7684 52.8989 46.7709 53.0549C47.2164 53.1255 47.9589 53.3965 48.501 53.2072C48.6353 53.175 48.7617 53.1158 48.8725 53.0334C48.9833 52.9509 49.0762 52.8469 49.1456 52.7275C49.215 52.6081 49.2595 52.4758 49.2763 52.3388C49.2931 52.2017 49.282 52.0626 49.2435 51.93C48.7535 51.1355 47.6174 51.9523 47.1236 52.3829C46.0098 53.5561 47.7436 54.0574 48.7052 53.7121C48.9722 53.6505 49.2246 53.537 49.4477 53.3779C50.3276 52.7208 49.6148 51.1949 48.5901 51.1503C48.0638 51.1295 47.5465 51.2916 47.1262 51.609C46.7059 51.9265 46.4085 52.3797 46.2845 52.8916C46.2028 53.9683 47.532 54.5177 48.475 54.1353C49.4366 53.8346 50.4353 52.925 50.2905 51.8557C50.2706 51.6188 50.1815 51.3929 50.0343 51.2061C49.8871 51.0193 49.6883 50.8798 49.4626 50.805C48.5158 50.5674 47.1199 50.8719 46.2474 51.3285C45.3749 51.7852 44.9591 53.0846 45.9318 53.7381C47.2647 54.6328 49.4143 54.5734 50.6544 53.5933C52.7557 51.6367 48.798 49.8212 47.0827 50.1479C45.3749 50.2184 44.0049 52.5314 45.4529 53.7863C46.8303 54.7925 49.121 55.0227 50.3796 53.6824C49.9871 54.1591 49.4502 54.4953 48.85 54.6403C47.4614 54.9595 45.3712 54.6403 44.6695 53.2443C44.4988 52.7808 44.4662 52.2777 44.5756 51.796C44.685 51.3143 44.9317 50.8746 45.2858 50.5303C47.0271 48.5069 52.8486 50.2518 51.7125 53.2666C50.5987 55.4942 46.0321 55.6909 44.8254 53.4782C44.0198 51.5513 46.084 50.2741 47.7176 50.0922C48.6161 49.9029 49.9452 49.8509 50.6024 50.7568C52.184 53.0401 48.8426 55.8543 46.6149 54.6477C46.2885 54.4745 46.0197 54.2097 45.8416 53.8859C45.6635 53.562 45.5839 53.1932 45.6125 52.8247C45.8947 50.7048 49.3029 49.4833 50.2051 51.8335C50.3515 52.1646 50.3824 52.5353 50.2929 52.886C50.2033 53.2368 49.9985 53.5474 49.7113 53.7678C48.7572 54.4509 46.4219 54.6106 46.3699 53.0252C46.3699 51.9671 48.9057 50.5786 49.4477 51.8446C49.4937 52.0041 49.5065 52.1714 49.4854 52.336C49.4642 52.5007 49.4094 52.6593 49.3245 52.8019C49.2396 52.9446 49.1263 53.0683 48.9917 53.1655C48.8571 53.2626 48.704 53.3312 48.5418 53.3668C47.9169 53.4492 47.2815 53.35 46.7115 53.0809C46.7061 52.9123 46.7584 52.7469 46.8596 52.6119C46.9608 52.4769 47.105 52.3805 47.2684 52.3384V52.3421Z" fill="white"/>
<path d="M57.1024 52.3421C56.9551 52.3936 56.8278 52.4901 56.7385 52.6181C56.6492 52.7461 56.6024 52.8989 56.6049 53.0549C57.0542 53.1255 57.793 53.3965 58.3351 53.2072C58.4694 53.175 58.5957 53.1158 58.7065 53.0334C58.8173 52.9509 58.9102 52.8469 58.9796 52.7275C59.0491 52.6081 59.0935 52.4758 59.1104 52.3388C59.1272 52.2017 59.1161 52.0626 59.0776 51.93C58.5875 51.1355 57.4514 51.9523 56.9576 52.3829C55.8438 53.5561 57.5777 54.0574 58.5393 53.7121C58.8063 53.6505 59.0586 53.537 59.2818 53.3779C60.1617 52.7208 59.4526 51.1949 58.4279 51.1503C57.901 51.1286 57.3828 51.2903 56.9617 51.6078C56.5406 51.9253 56.2427 52.379 56.1186 52.8916C56.0369 53.9683 57.3698 54.5177 58.3091 54.1353C59.2707 53.8346 60.2731 52.925 60.1246 51.8557C60.1049 51.6192 60.0164 51.3936 59.8699 51.2069C59.7234 51.0201 59.5254 50.8804 59.3004 50.805C58.3499 50.5674 56.9539 50.8719 56.0852 51.3285C55.2164 51.7852 54.7969 53.0846 55.7659 53.7381C56.4825 54.1757 57.3112 54.3951 58.1506 54.3694C58.9899 54.3437 59.8036 54.074 60.4921 53.5933C62.5898 51.6367 58.6358 49.8212 56.9168 50.1479C55.209 50.2184 53.839 52.5314 55.2869 53.7863C56.6643 54.7925 58.9588 55.0227 60.2137 53.6824C59.8212 54.1591 59.2843 54.4953 58.6841 54.6403C57.2992 54.9595 55.2053 54.6403 54.5036 53.2443C54.3338 52.7806 54.3017 52.2778 54.411 51.7963C54.5204 51.3148 54.7665 50.8752 55.1199 50.5303C56.8648 48.5069 62.6826 50.2518 61.5465 53.2666C60.4327 55.4942 55.8661 55.6909 54.6595 53.4782C53.8538 51.5513 55.9181 50.2741 57.5517 50.0922C58.4502 49.9029 59.7793 49.8509 60.4364 50.7568C62.0329 53.0327 58.6952 55.8469 56.4824 54.6403C56.1562 54.4665 55.8874 54.2017 55.7088 53.8781C55.5302 53.5545 55.4494 53.186 55.4763 52.8173C55.7584 50.6974 59.189 49.4759 60.0689 51.826C60.215 52.1569 60.2462 52.5271 60.1573 52.8777C60.0685 53.2283 59.8648 53.539 59.5788 53.7603C58.6209 54.4435 56.2856 54.6031 56.2374 53.0178C56.2597 51.9597 58.7732 50.5711 59.3152 51.8372C59.3612 51.9967 59.374 52.1639 59.3528 52.3286C59.3316 52.4933 59.2769 52.6518 59.192 52.7945C59.1071 52.9372 58.9938 53.0609 58.8592 53.1581C58.7246 53.2552 58.5715 53.3237 58.4093 53.3594C57.7856 53.4422 57.1513 53.3429 56.5827 53.0735C56.5771 52.9054 56.6288 52.7403 56.7293 52.6054C56.8298 52.4705 56.9732 52.3738 57.1359 52.331L57.1024 52.3421Z" fill="white"/>
<path d="M34.8568 62.0916L33.3717 66.584L33.3197 66.5506C34.8747 65.0742 36.8693 64.146 39.0002 63.9071C41.1424 63.677 43.2363 64.2153 45.3117 64.4269C47.404 64.6971 49.5159 64.784 51.6233 64.6868C56.8211 64.4603 62.2305 62.2847 65.0336 57.7069C66.2811 55.7726 67.354 54.3989 66.5744 51.982C65.9662 49.976 64.9229 48.1289 63.5188 46.5725C63.3369 46.3758 62.8802 45.9154 62.702 45.7261C62.5238 45.5367 62.0189 45.106 61.8295 44.939C61.2213 44.4428 60.5881 43.9781 59.9324 43.5467C53.1567 39.1249 44.443 40.0122 37.1884 42.8376C32.5883 44.7348 29.3917 45.4365 29.3917 51.2394C29.3286 55.3865 30.951 59.9049 34.6377 62.1362C30.925 59.9457 29.2135 55.4162 29.2172 51.2394C29.1652 45.3808 32.4435 44.5231 37.103 42.6037C44.4058 39.7226 53.2532 38.813 60.144 43.246C60.7677 43.6544 61.5103 44.1853 62.0857 44.6568C62.2751 44.8313 62.7986 45.2917 62.9842 45.4587C63.1698 45.6258 63.6265 46.1345 63.8158 46.3275C65.2478 47.9334 66.3087 49.8347 66.9234 51.8966C67.7105 54.4212 66.6486 55.858 65.3121 57.8851C62.4459 62.5186 56.9325 64.7277 51.6567 64.9393C48.4713 65.1138 45.3043 64.6794 42.1671 64.1967C39.0484 63.6398 35.7033 64.3824 33.3717 66.6063L33.2752 66.6954L33.3197 66.5729L34.8568 62.1176V62.0916Z" fill="#454545"/>
<defs>
<filter id="filter0_d_2_109" x="0.136987" y="3.13699" width="93.6986" height="109.726" filterUnits="userSpaceOnUse" color-interpolation-filters="sRGB">
<feFlood flood-opacity="0" result="BackgroundImageFix"/>
<feColorMatrix in="SourceAlpha" type="matrix" values="0 0 0 0 0 0 0 0 0 0 0 0 0 0 0 0 0 0 127 0" result="hardAlpha"/>
<feOffset/>
<feGaussianBlur stdDeviation="4.93151"/>
<feComposite in2="hardAlpha" operator="out"/>
<feColorMatrix type="matrix" values="0 0 0 0 0 0 0 0 0 0 0 0 0 0 0 0 0 0 0.05 0"/>
<feBlend mode="normal" in2="BackgroundImageFix" result="effect1_dropShadow_2_109"/>
<feBlend mode="normal" in="SourceGraphic" in2="effect1_dropShadow_2_109" result="shape"/>
</filter>
<filter id="filter1_d_2_109" x="0" y="10.3975" width="93.9726" height="93.9727" filterUnits="userSpaceOnUse" color-interpolation-filters="sRGB">
<feFlood flood-opacity="0" result="BackgroundImageFix"/>
<feColorMatrix in="SourceAlpha" type="matrix" values="0 0 0 0 0 0 0 0 0 0 0 0 0 0 0 0 0 0 127 0" result="hardAlpha"/>
<feOffset/>
<feGaussianBlur stdDeviation="5"/>
<feComposite in2="hardAlpha" operator="out"/>
<feColorMatrix type="matrix" values="0 0 0 0 0 0 0 0 0 0 0 0 0 0 0 0 0 0 0.08 0"/>
<feBlend mode="normal" in2="BackgroundImageFix" result="effect1_dropShadow_2_109"/>
<feBlend mode="normal" in="SourceGraphic" in2="effect1_dropShadow_2_109" result="shape"/>
</filter>
<linearGradient id="paint0_linear_2_109" x1="23.2475" y1="12.88" x2="111.411" y2="58.8844" gradientUnits="userSpaceOnUse">
<stop stop-color="#3CA0D2"/>
<stop offset="1" stop-color="#48DCA6"/>
</linearGradient>
<linearGradient id="paint1_linear_2_109" x1="31.4977" y1="42.2866" x2="66.1109" y2="66.8831" gradientUnits="userSpaceOnUse">
<stop stop-color="#3CA0D2"/>
<stop offset="1" stop-color="#48DCA6"/>
</linearGradient>
</defs>
</svg>
