<svg width="105" height="105" viewBox="0 0 105 105" fill="none" xmlns="http://www.w3.org/2000/svg">
<ellipse cx="58.3557" cy="45.2743" rx="43.4573" ry="43.7563" fill="white"/>
<path d="M17.1439 27.9557C23.1336 21.3609 27.9253 13.6146 34.7038 7.8759M16.0472 35.7632C26.703 25.2349 34.9782 13.6136 38.107 5.07929M16.2991 39.0388C23.3523 26.4418 31.1271 19.0878 43.503 7.43094M16.1777 41.2017C26.0055 28.6517 35.764 19.272 45.1267 6.03414M14 46.524C29.8455 28.2482 43.0991 13.1092 52.1161 3.59151M15.571 47.647C25.2387 35.3146 35.4368 22.8863 53.3339 2.46541M16.9844 50.3537C28.3087 36.867 40.0748 18.7006 54.2074 1M17.6299 53.1553C34.4145 34.3986 49.6621 14.2739 57.2192 1.27248M17.8792 57.6164C25.3714 42.4811 36.9613 30.7177 59.7087 2.16342M19.0756 58.2719C31.8889 39.768 49.079 21.671 65.7609 2.1774M20.1075 61.9531C35.3452 40.0416 54.9056 18.7824 64.7341 3.05144M20.7389 64.0213C33.4991 45.3206 45.3765 30.2071 69.8581 1.92708M20.7693 65.9984C34.8276 44.7998 50.6743 28.656 68.614 2.20063M19.6631 66.793C37.2089 46.6758 50.9538 29.3256 71.0891 6.12629M23.2272 68.0313C33.4172 56.3507 42.8886 44.8889 76.0613 5.03345M24.6125 69.6947C41.7342 49.9303 62.9971 25.2872 78.9813 6.45798M26.8405 72.1668C45.6343 47.0181 62.4506 26.1063 79.8249 8.96218M25.3862 75.6678C46.0625 49.185 69.4246 21.164 79.4824 6.5913M28.9475 73.6977C41.2888 60.306 54.5644 44.5846 82.0157 7.8684M30.3076 76.631C50.3455 54.5042 67.0544 32.7374 84.1623 10.923M30.1482 76.5039C48.846 60.1931 66.0408 39.7839 85.269 12.7035M32.2974 78.1266C54.0636 55.8357 72.4879 32.3958 88.0323 12.1229M34.5105 79.541C57.2965 56.3704 77.3423 28.079 89.4878 13.9178M33.9561 81.8124C46.5417 64.8504 62.9218 49.3251 90.2715 13.9694M37.187 81.8304C51.5525 65.366 64.8053 50.2203 92.0868 15.3295M40.6913 84.0219C57.1227 65.2759 75.3188 40.8528 94.3096 20.7659M40.9436 87.5763C56.6992 67.9942 69.0606 48.932 94.6513 19.4111M43.6172 85.7054C54.6451 69.5402 71.5968 54.767 95.369 23.0067M44.1203 88.0173C60.1037 65.25 77.6842 47.9013 95.1971 22.6156M47.7333 87.5005C65.4541 66.397 85.7939 41.5164 98.3724 26.0132M50.1108 86.8925C58.53 75.8113 72.1887 63.356 98.7084 29.578M50.7583 88.5469C66.0834 70.3214 84.6644 47.5802 100.064 29.2022M54.8446 89.4783C71.2035 66.767 85.4249 47.3854 99.1911 34.8776M56.0278 90.6884C70.6345 74.3336 83.3172 59.2807 99.6215 35.639M57.9552 91C70.3668 77.264 78.1897 63.7451 102.509 39.0244M62.1029 88.8472C77.395 73.2804 90.5152 59.0051 100.937 38.1505M63.9987 89.1032C74.5272 72.6726 86.0854 57.997 100.546 44.7703M67.0651 87.4579C81.9037 72.3303 92.6884 57.0054 101.008 46.3777M71.9795 87.7527C81.7305 72.6428 92.7531 59.9095 104 51.3779M75.2582 87.207C83.6317 75.2485 95.6843 62.8801 102.812 52.2048M79.2248 82.6991C87.6194 73.935 92.7768 67.0038 100.995 61.0468M83.0715 80.4248C88.2098 75.8517 94.068 67.948 99.6276 63.7043M27.4999 14.4881V14.4881Z" stroke="url(#paint0_linear_2_148)" stroke-width="0.5" stroke-linecap="round"/>
<g filter="url(#filter0_d_2_148)">
<g filter="url(#filter1_d_2_148)">
<circle cx="46.9863" cy="57.3838" r="36.9863" fill="white"/>
</g>
</g>
<path d="M46.3842 71.0531C42.6146 71.0531 38.8409 71.0531 35.0712 71.0531C33.0851 71.0531 31.5853 69.9546 31.1313 68.1266C30.9799 67.5548 30.9591 66.9564 31.0705 66.3755C31.5286 64.4218 32.0069 62.4681 32.6108 60.5549C33.1295 58.8623 33.9914 57.2949 35.1428 55.9503C36.2942 54.6057 37.7104 53.5129 39.3029 52.74C39.444 52.6486 39.6111 52.6059 39.7786 52.6183C39.9462 52.6308 40.1052 52.6977 40.2312 52.8089C42.0444 54.1001 44.215 54.794 46.4409 54.794C48.6669 54.794 50.8375 54.1001 52.6507 52.8089C52.7798 52.7004 52.9409 52.6373 53.1093 52.6293C53.2777 52.6212 53.4441 52.6686 53.583 52.7643C57.3364 54.7058 59.6347 57.7621 60.6399 61.8398C60.9723 63.1733 61.329 64.5029 61.6735 65.8324C62.4396 68.7711 60.6723 71.0612 57.6201 71.0653L46.3842 71.0531Z" fill="url(#paint1_linear_2_148)"/>
<path d="M55.3584 43.9606C55.3868 48.8247 52.6792 51.8039 46.4856 52.9145C41.5972 52.9591 36.9115 49.3395 37.4993 43.9971C37.4993 39.1006 41.5526 35.485 46.441 35.0473C52.5697 34.4838 55.3341 39.0479 55.3584 43.9606Z" fill="url(#paint2_linear_2_148)"/>
<path d="M32.1846 67.6001C32.88 62.9369 35.0174 58.6083 38.2971 55.2211C38.4388 55.0618 38.6142 54.936 38.8104 54.8526C39.0067 54.7692 39.2189 54.7303 39.432 54.7387C40.6034 54.9454 41.6573 55.4035 42.8409 55.5494C45.8876 56.0817 49.0166 55.8929 51.9772 54.9981C52.5447 54.8482 53.1932 54.4915 53.785 54.7104C56.0103 55.9912 57.6479 58.1882 58.7504 60.4783C59.7526 62.6306 60.1999 64.9995 60.0515 67.369C60.0515 68.1513 59.8975 69.2133 59.0057 69.4971C53.0027 71.0211 46.4849 70.0443 40.3602 69.7889L35.7151 69.4971C34.5842 69.4282 33.283 69.1444 32.6629 68.0703C32.459 67.7337 32.3774 67.3372 32.4318 66.9475C32.2859 68.6986 34.2721 69.4079 35.7232 69.3795C41.8519 69.5376 48.2197 70.2307 54.3282 69.8619C55.861 69.767 57.3812 69.5254 58.8679 69.1404C59.63 68.8769 59.63 68.0297 59.6786 67.3326C59.7279 66.5678 59.7103 65.8001 59.6259 65.0384C59.2767 61.9783 57.9522 59.1119 55.8482 56.8627C55.3222 56.3059 54.75 55.7947 54.1376 55.3346C54.0131 55.218 53.8639 55.1308 53.7011 55.0796C53.5384 55.0284 53.3662 55.0144 53.1973 55.0387C52.8568 55.0995 52.4798 55.2535 52.1029 55.3589C49.0882 56.2678 45.8995 56.4401 42.8044 55.8615C41.6654 55.6994 40.5386 55.2251 39.4361 55.0103C39.2586 55.0001 39.0812 55.0314 38.9179 55.1018C38.7547 55.1721 38.6101 55.2796 38.4957 55.4156C35.1988 58.7391 33.0028 62.9954 32.2048 67.6082L32.1846 67.6001Z" fill="#454545"/>
<path d="M49.6562 60.7092C51.1415 60.3558 52.6793 60.2803 54.192 60.4863C52.7065 60.8376 51.1691 60.9132 49.6562 60.7092Z" fill="#454545"/>
<path d="M49.4692 60.9848C49.51 62.0535 49.6251 63.1181 49.8137 64.1708C49.8343 64.3986 49.9382 64.6107 50.1056 64.7666C50.8196 65.038 51.5793 65.1687 52.343 65.1517C55.0993 65.176 54.5886 62.2495 54.5967 60.3403C54.9574 62.4805 55.4317 65.5003 52.3471 65.557C51.5364 65.5165 50.6122 65.4719 49.8867 65.0463C49.6611 64.8344 49.5249 64.5445 49.5057 64.2356C49.3696 63.1597 49.3573 62.0717 49.4692 60.9929V60.9848Z" fill="#454545"/>
<path d="M42.1362 46.6032C44.7101 48.9339 49.1323 48.9704 50.8793 45.6993L51.1549 45.9182C49.3228 47.4666 46.8705 48.484 44.4385 48.1516C44.0171 48.0773 43.6203 47.9005 43.2833 47.6368C42.9388 47.3531 42.7523 46.9761 42.4726 46.8262L42.732 46.6275C42.9306 47.4382 43.8913 47.7625 44.6331 47.9976C47.0164 48.8083 50.3078 48.5975 51.5238 46.0317C51.1923 46.8796 50.5703 47.5821 49.7687 48.0138C47.7906 49.1285 45.2451 48.7637 43.2833 47.8314C43.0657 47.7187 42.8738 47.5623 42.7196 47.3718C42.5654 47.1814 42.4524 46.9611 42.3875 46.7248L42.3024 46.3195L42.6469 46.514C43.0522 46.7491 43.2509 47.1423 43.5305 47.3247C43.8119 47.5515 44.1445 47.706 44.4993 47.7746C46.7732 48.0462 49.1688 47.1018 50.9077 45.6466L51.6049 45.0508C49.943 49.1366 45.087 49.5095 42.124 46.6032H42.1362Z" fill="white"/>
<path d="M41.4961 43.0039C41.5285 41.5325 43.4539 40.7178 44.5726 41.6663C44.9334 41.935 45.176 42.3331 45.2495 42.7769C45.0657 42.4243 44.7838 42.1324 44.4377 41.9365C44.0916 41.7406 43.6961 41.6492 43.2992 41.6732C42.9022 41.6972 42.5207 41.8356 42.2008 42.0718C41.8808 42.3079 41.636 42.6317 41.4961 43.0039Z" fill="white"/>
<path d="M48.2402 42.793C48.1983 42.565 48.228 42.3296 48.3252 42.1191C48.4225 41.9086 48.5825 41.7334 48.7833 41.6176C49.1846 41.3742 49.6562 41.2734 50.1219 41.3315C50.5876 41.3896 51.02 41.6032 51.3491 41.9378C51.6833 42.2401 51.9073 42.6451 51.9855 43.0889C51.7741 42.7309 51.4896 42.4215 51.1505 42.181C50.2709 41.4838 48.5077 41.4676 48.2402 42.793Z" fill="white"/>
<defs>
<filter id="filter0_d_2_148" x="0.136987" y="3.13699" width="93.6986" height="109.726" filterUnits="userSpaceOnUse" color-interpolation-filters="sRGB">
<feFlood flood-opacity="0" result="BackgroundImageFix"/>
<feColorMatrix in="SourceAlpha" type="matrix" values="0 0 0 0 0 0 0 0 0 0 0 0 0 0 0 0 0 0 127 0" result="hardAlpha"/>
<feOffset/>
<feGaussianBlur stdDeviation="4.93151"/>
<feComposite in2="hardAlpha" operator="out"/>
<feColorMatrix type="matrix" values="0 0 0 0 0 0 0 0 0 0 0 0 0 0 0 0 0 0 0.05 0"/>
<feBlend mode="normal" in2="BackgroundImageFix" result="effect1_dropShadow_2_148"/>
<feBlend mode="normal" in="SourceGraphic" in2="effect1_dropShadow_2_148" result="shape"/>
</filter>
<filter id="filter1_d_2_148" x="0" y="10.3975" width="93.9726" height="93.9727" filterUnits="userSpaceOnUse" color-interpolation-filters="sRGB">
<feFlood flood-opacity="0" result="BackgroundImageFix"/>
<feColorMatrix in="SourceAlpha" type="matrix" values="0 0 0 0 0 0 0 0 0 0 0 0 0 0 0 0 0 0 127 0" result="hardAlpha"/>
<feOffset/>
<feGaussianBlur stdDeviation="5"/>
<feComposite in2="hardAlpha" operator="out"/>
<feColorMatrix type="matrix" values="0 0 0 0 0 0 0 0 0 0 0 0 0 0 0 0 0 0 0.08 0"/>
<feBlend mode="normal" in2="BackgroundImageFix" result="effect1_dropShadow_2_148"/>
<feBlend mode="normal" in="SourceGraphic" in2="effect1_dropShadow_2_148" result="shape"/>
</filter>
<linearGradient id="paint0_linear_2_148" x1="23.2475" y1="12.88" x2="111.411" y2="58.8844" gradientUnits="userSpaceOnUse">
<stop stop-color="#3CA0D2"/>
<stop offset="1" stop-color="#48DCA6"/>
</linearGradient>
<linearGradient id="paint1_linear_2_148" x1="34.17" y1="55.0515" x2="55.9996" y2="74.1" gradientUnits="userSpaceOnUse">
<stop stop-color="#3CA0D2"/>
<stop offset="1" stop-color="#48DCA6"/>
</linearGradient>
<linearGradient id="paint2_linear_2_148" x1="39.2894" y1="37.3648" x2="56.8357" y2="46.5177" gradientUnits="userSpaceOnUse">
<stop stop-color="#3CA0D2"/>
<stop offset="1" stop-color="#48DCA6"/>
</linearGradient>
</defs>
</svg>
